<svg version="1.1" xmlns="http://www.w3.org/2000/svg" viewBox="0 0 799.1998596191406 326.00000762939453" width="1598.3997192382812" height="652.0000152587891" filter="invert(93%) hue-rotate(180deg)">
  <!-- svg-source:excalidraw -->
  
  <defs>
    <style class="style-fonts">
      @font-face {
        font-family: "Virgil";
        src: url("https://excalidraw.com/Virgil.woff2");
      }
      @font-face {
        font-family: "Cascadia";
        src: url("https://excalidraw.com/Cascadia.woff2");
      }
      @font-face {
        font-family: "Assistant";
        src: url("https://excalidraw.com/Assistant-Regular.woff2");
      }
    </style>
    
  </defs>
  <rect x="0" y="0" width="799.1998596191406" height="326.00000762939453" fill="#ffffff"></rect><g stroke-linecap="round" transform="translate(309.2000427246094 139.6000518798828) rotate(0 128.80001831054688 30)"><path d="M15 0 C69.44 -0.27, 120.18 -0.62, 242.6 0 M15 0 C63.92 0.89, 113.14 1.59, 242.6 0 M242.6 0 C252.48 0.81, 257.4 5.19, 257.6 15 M242.6 0 C253.45 2.13, 258.79 6.08, 257.6 15 M257.6 15 C256.66 24.74, 258.1 33.59, 257.6 45 M257.6 15 C256.83 22.62, 256.74 31.15, 257.6 45 M257.6 45 C259.21 56.57, 251.58 61.26, 242.6 60 M257.6 45 C259.47 53.32, 250.61 59.57, 242.6 60 M242.6 60 C180.74 60.88, 119.83 60.89, 15 60 M242.6 60 C165.22 59.36, 87.01 58.96, 15 60 M15 60 C3.17 60.86, -1.09 54.38, 0 45 M15 60 C2.86 59.6, 0.38 54.56, 0 45 M0 45 C0.17 35.62, -0.72 28.33, 0 15 M0 45 C-0.49 39.02, 1.11 31.31, 0 15 M0 15 C-1.85 5.66, 3.31 0.31, 15 0 M0 15 C-1.97 6.89, 4.57 -1.3, 15 0" stroke="#e03131" stroke-width="1" fill="none"></path></g><g transform="translate(385.97760009765625 148.90005187988282) rotate(0 52.0224609375 20.69999999999999)"><text x="52.0224609375" y="0" font-family="Helvetica, Segoe UI Emoji" font-size="36px" fill="#f08c00" text-anchor="middle" style="white-space: pre;" direction="ltr" dominant-baseline="text-before-edge">Object</text></g><g stroke-linecap="round" transform="translate(10 10) rotate(0 81.19999694824219 30.399986267089844)"><path d="M15.2 0 C63.6 1.78, 109.98 0.95, 147.2 0 M15.2 0 C44.6 -0.78, 75.6 -1.72, 147.2 0 M147.2 0 C156.18 0.11, 161.17 5.94, 162.4 15.2 M147.2 0 C158.43 -0.17, 160.13 7.13, 162.4 15.2 M162.4 15.2 C163.09 25.65, 162.3 33.7, 162.4 45.6 M162.4 15.2 C161.43 24.02, 162.37 34.34, 162.4 45.6 M162.4 45.6 C163.92 55.85, 155.38 61.75, 147.2 60.8 M162.4 45.6 C161.72 54.31, 156.28 61.57, 147.2 60.8 M147.2 60.8 C96.63 58.37, 50.08 60.64, 15.2 60.8 M147.2 60.8 C97.27 61.47, 48.14 61.1, 15.2 60.8 M15.2 60.8 C3.24 60.96, 1.29 55.56, 0 45.6 M15.2 60.8 C6.8 60.72, -1.33 54.91, 0 45.6 M0 45.6 C-0.14 36.95, 0.5 28.74, 0 15.2 M0 45.6 C0.2 34.35, -0.49 23.97, 0 15.2 M0 15.2 C-1.61 3.17, 4.61 1.33, 15.2 0 M0 15.2 C0.4 6.93, 3.94 0.89, 15.2 0" stroke="#2f9e44" stroke-width="1" fill="none"></path></g><g transform="translate(28.156051635742188 19.699986267089855) rotate(0 63.0439453125 20.700000000000003)"><text x="63.0439453125" y="0" font-family="Helvetica, Segoe UI Emoji" font-size="36px" fill="#f08c00" text-anchor="middle" style="white-space: pre;" direction="ltr" dominant-baseline="text-before-edge">function</text></g><g stroke-linecap="round" transform="translate(10.999984741210938 133.19998931884766) rotate(0 81.19999694824219 30.399986267089844)"><path d="M15.2 0 C65.41 0.04, 115.2 -1.34, 147.2 0 M15.2 0 C66 1.04, 118.96 1.55, 147.2 0 M147.2 0 C155.99 1.73, 163.07 3.75, 162.4 15.2 M147.2 0 C156.73 -0.72, 162.14 6.07, 162.4 15.2 M162.4 15.2 C161.06 28.77, 162.51 36.98, 162.4 45.6 M162.4 15.2 C161.92 21.33, 163.47 29.32, 162.4 45.6 M162.4 45.6 C162.81 55.23, 158.63 60.94, 147.2 60.8 M162.4 45.6 C163.74 57.03, 155.16 58.93, 147.2 60.8 M147.2 60.8 C103.06 60.12, 55.99 60.87, 15.2 60.8 M147.2 60.8 C111.63 61.86, 74.4 61.61, 15.2 60.8 M15.2 60.8 C5.44 60.44, -1.27 57, 0 45.6 M15.2 60.8 C5.23 60.09, -0.22 55.75, 0 45.6 M0 45.6 C-1.95 34.98, 0.13 27.37, 0 15.2 M0 45.6 C-1.17 37.5, -1.1 27.41, 0 15.2 M0 15.2 C-0.75 5.71, 4.3 -0.53, 15.2 0 M0 15.2 C-1.4 6.08, 4.93 -1.9, 15.2 0" stroke="#2f9e44" stroke-width="2" fill="none"></path></g><g transform="translate(49.195098876953125 142.8999755859375) rotate(0 43.0048828125 20.69999999999999)"><text x="43.0048828125" y="0" font-family="Helvetica, Segoe UI Emoji" font-size="36px" fill="#f08c00" text-anchor="middle" style="white-space: pre;" direction="ltr" dominant-baseline="text-before-edge">Array</text></g><g stroke-linecap="round" transform="translate(12.399948120117188 255.20003509521484) rotate(0 81.19999694824219 30.399986267089844)"><path d="M15.2 0 C64.98 -1.53, 119.02 -0.93, 147.2 0 M15.2 0 C58.62 0.11, 102.24 0.4, 147.2 0 M147.2 0 C159.03 1.49, 161.14 5.73, 162.4 15.2 M147.2 0 C155.43 -1.05, 163.7 3.58, 162.4 15.2 M162.4 15.2 C161.69 21.28, 162.29 29, 162.4 45.6 M162.4 15.2 C161.79 22.85, 162.56 27.9, 162.4 45.6 M162.4 45.6 C162.89 57.42, 156.88 62.35, 147.2 60.8 M162.4 45.6 C164.58 56.1, 157.2 62.47, 147.2 60.8 M147.2 60.8 C99.45 59.92, 51.24 58.84, 15.2 60.8 M147.2 60.8 C103.52 60.48, 60.12 62.06, 15.2 60.8 M15.2 60.8 C7.01 62.78, -1.13 54.83, 0 45.6 M15.2 60.8 C6.41 62.93, -1.66 56.36, 0 45.6 M0 45.6 C-1.83 39.24, -1.36 28.65, 0 15.2 M0 45.6 C0.54 37.64, -0.71 27.64, 0 15.2 M0 15.2 C-0.24 3.76, 4.87 1.72, 15.2 0 M0 15.2 C1.31 5.82, 3.48 -0.09, 15.2 0" stroke="#2f9e44" stroke-width="2" fill="none"></path></g><g transform="translate(46.578460693359375 264.9000213623047) rotate(0 47.021484375 20.69999999999999)"><text x="47.021484375" y="0" font-family="Helvetica, Segoe UI Emoji" font-size="36px" fill="#f08c00" text-anchor="middle" style="white-space: pre;" direction="ltr" dominant-baseline="text-before-edge">String</text></g><g stroke-linecap="round"><g transform="translate(173.99996948242188 53.999969482421875) rotate(0 66.80001831054688 56.00000762939453)"><path d="M-0.76 -0.72 C21.61 17.76, 110.78 92.5, 133.11 111.11 M1.04 1.52 C23.31 20.1, 110.04 93.81, 131.9 112.19" stroke="#2f9e44" stroke-width="1" fill="none"></path></g><g transform="translate(173.99996948242188 53.999969482421875) rotate(0 66.80001831054688 56.00000762939453)"><path d="M108.44 103.55 C112.09 104.65, 116.64 106.58, 131.9 112.19 M108.44 103.55 C114.24 105.1, 119.48 107.86, 131.9 112.19" stroke="#2f9e44" stroke-width="1" fill="none"></path></g><g transform="translate(173.99996948242188 53.999969482421875) rotate(0 66.80001831054688 56.00000762939453)"><path d="M119.48 90.49 C120.89 94.21, 123.17 98.83, 131.9 112.19 M119.48 90.49 C123 94.74, 125.87 100.31, 131.9 112.19" stroke="#2f9e44" stroke-width="1" fill="none"></path></g></g><mask></mask><g stroke-linecap="round"><g transform="translate(176.39999389648438 163.59999084472656) rotate(0 64 3.1999969482421875)"><path d="M-1.01 0.81 C20.46 1.85, 107.18 6.36, 128.48 7.11 M0.66 0.19 C22.04 0.81, 106.38 4.38, 127.78 5.36" stroke="#2f9e44" stroke-width="1" fill="none"></path></g><g transform="translate(176.39999389648438 163.59999084472656) rotate(0 64 3.1999969482421875)"><path d="M103.94 12.88 C111.74 11.83, 118.08 6.98, 127.78 5.36 M103.94 12.88 C108.36 10.87, 114 9.53, 127.78 5.36" stroke="#2f9e44" stroke-width="1" fill="none"></path></g><g transform="translate(176.39999389648438 163.59999084472656) rotate(0 64 3.1999969482421875)"><path d="M104.69 -4.2 C112.4 -0.6, 118.54 -0.79, 127.78 5.36 M104.69 -4.2 C108.98 -2.6, 114.46 -0.32, 127.78 5.36" stroke="#2f9e44" stroke-width="1" fill="none"></path></g></g><mask></mask><g stroke-linecap="round"><g transform="translate(172.39999389648438 286.7999725341797) rotate(0 66 -56.80000305175781)"><path d="M-0.87 0.37 C20.86 -18.33, 108.63 -94.17, 130.92 -113.06 M0.87 -0.49 C22.91 -19.47, 111.11 -95.82, 133.07 -114.89" stroke="#2f9e44" stroke-width="1" fill="none"></path></g><g transform="translate(172.39999389648438 286.7999725341797) rotate(0 66 -56.80000305175781)"><path d="M120.92 -93.05 C125.87 -102.27, 130.34 -106.46, 133.07 -114.89 M120.92 -93.05 C124.24 -101.33, 129.78 -108.43, 133.07 -114.89" stroke="#2f9e44" stroke-width="1" fill="none"></path></g><g transform="translate(172.39999389648438 286.7999725341797) rotate(0 66 -56.80000305175781)"><path d="M109.72 -105.97 C118.42 -110.66, 126.75 -110.41, 133.07 -114.89 M109.72 -105.97 C117.07 -109.62, 126.59 -112.11, 133.07 -114.89" stroke="#2f9e44" stroke-width="1" fill="none"></path></g></g><mask></mask><g stroke-linecap="round" transform="translate(688.3999328613281 110.80003356933594) rotate(0 50.39996337890625 55.20001220703125)"><path d="M55.32 0.32 C63.44 0.42, 73.28 5.64, 80.01 10.94 C86.73 16.25, 92.4 23.76, 95.67 32.16 C98.94 40.56, 100.37 51.96, 99.63 61.34 C98.9 70.73, 96.01 81.08, 91.25 88.48 C86.5 95.88, 78.95 102.16, 71.11 105.76 C63.28 109.35, 52.5 111.04, 44.26 110.07 C36.01 109.1, 28.32 105.22, 21.64 99.94 C14.96 94.66, 7.8 86.74, 4.18 78.39 C0.57 70.03, -0.83 59.04, -0.07 49.8 C0.7 40.57, 3.92 30.5, 8.79 22.96 C13.65 15.43, 20.1 8.21, 29.11 4.58 C38.13 0.96, 56.48 1.06, 62.86 1.23 C69.23 1.4, 67.79 4.74, 67.38 5.63" stroke="#f08c00" stroke-width="1.5" fill="none" stroke-dasharray="8 9"></path></g><g transform="translate(710.6422091134561 145.2677428231952) rotate(0 28.01953125 20.69999999999999)"><text x="28.01953125" y="0" font-family="Helvetica, Segoe UI Emoji" font-size="36px" fill="#f08c00" text-anchor="middle" style="white-space: pre;" direction="ltr" dominant-baseline="text-before-edge">null</text></g><g stroke-linecap="round"><g transform="translate(566.8000183105469 170.7999725341797) rotate(0 60.399993896484375 -0.399993896484375)"><path d="M0.51 -0.36 C20.75 -0.26, 101.36 -0.13, 121.34 -0.06 M-0.69 -1.6 C19.45 -1.78, 100.65 -1.76, 120.67 -1.79" stroke="#f08c00" stroke-width="1" fill="none"></path></g><g transform="translate(566.8000183105469 170.7999725341797) rotate(0 60.399993896484375 -0.399993896484375)"><path d="M97.18 6.77 C103.49 5.06, 112.19 0.98, 120.67 -1.79 M97.18 6.77 C105.29 2.97, 114.63 0.6, 120.67 -1.79" stroke="#f08c00" stroke-width="1" fill="none"></path></g><g transform="translate(566.8000183105469 170.7999725341797) rotate(0 60.399993896484375 -0.399993896484375)"><path d="M97.17 -10.33 C103.39 -7.04, 112.09 -6.13, 120.67 -1.79 M97.17 -10.33 C105.21 -7.74, 114.56 -3.73, 120.67 -1.79" stroke="#f08c00" stroke-width="1" fill="none"></path></g></g><mask></mask></svg>